<?xml version="1.0" standalone="no"?>
<!DOCTYPE svg PUBLIC "-//W3C//DTD SVG 20010904//EN"
 "http://www.w3.org/TR/2001/REC-SVG-20010904/DTD/svg10.dtd">
<svg version="1.0" xmlns="http://www.w3.org/2000/svg"
 width="512.000000pt" height="512.000000pt" viewBox="0 0 512.000000 512.000000"
 preserveAspectRatio="xMidYMid meet">

<g transform="translate(0.000000,512.000000) scale(0.100000,-0.100000)"
fill="#ffffff" stroke="none">
<path d="M1618 5104 c-75 -40 -179 -264 -324 -699 -135 -407 -194 -653 -194
-817 0 -293 124 -574 363 -824 156 -163 288 -260 492 -359 118 -57 229 -98
341 -125 l41 -10 6 -157 c10 -235 8 -723 -3 -1039 -12 -327 -33 -519 -58 -547
-45 -50 -167 -87 -407 -123 -274 -41 -358 -95 -357 -230 1 -86 43 -143 123
-164 25 -7 347 -9 941 -8 882 3 904 3 937 23 96 56 115 192 39 272 -51 53
-126 79 -313 107 -239 36 -362 73 -407 122 -43 49 -62 436 -54 1134 3 300 9
561 12 580 6 35 6 35 117 68 61 18 166 59 232 91 605 289 958 850 860 1366
-73 382 -323 1103 -444 1279 -57 82 20 76 -1003 76 -784 -1 -917 -3 -940 -16z
m1860 -224 c112 -224 302 -792 370 -1105 24 -114 22 -285 -7 -395 -12 -47 -46
-134 -76 -195 -173 -352 -536 -636 -952 -746 -65 -17 -126 -38 -135 -47 -28
-28 -38 -131 -48 -537 -17 -642 10 -1268 59 -1379 48 -110 206 -178 515 -222
94 -14 187 -32 206 -42 42 -20 51 -47 18 -56 -30 -8 -1706 -8 -1736 0 -33 9
-24 36 18 56 19 10 112 28 206 42 197 28 291 53 387 103 145 76 164 136 187
593 12 233 12 1138 1 1299 -8 106 -11 117 -34 137 -15 12 -52 28 -84 34 -169
33 -380 123 -538 229 -283 189 -482 450 -557 729 -30 112 -29 293 1 427 83
362 296 977 392 1132 l21 33 871 -2 872 -3 43 -85z"/>
<path d="M1511 3421 c-27 -17 -8 -124 38 -215 105 -210 309 -412 516 -512 145
-70 219 -85 445 -91 263 -7 400 17 560 97 254 128 530 456 547 651 5 46 3 63
-8 70 -18 11 -2080 11 -2098 0z"/>
</g>
</svg>
